<svg xmlns="http://www.w3.org/2000/svg" fill="currentColor" viewBox="0 0 512 512" xmlns:v="https://vecta.io/nano"><path fill="#0093b9" d="M456 80v408H40V80l208-48z"/><path fill="#e3e4e2" d="M104 168h288v320H104z"/><path fill="#0884a9" d="M456 80v34.67L248 64.46 40 114.67V80l208-48z"/><rect width="64" height="32" x="216" y="96" fill="#57c3c1" rx="16" transform="rotate(180 248 112)"/><path fill="#e3e4e2" d="M480 72 248 16 16 72v32l232-56 232 56z"/><path fill="#c9c9c8" d="M104 168h288v136H104z"/><path fill="#f8bc1e" d="M304 488V360H160V232H16v256z"/><path fill="#f9da62" d="M208 360h48v48h-48z"/><path fill="#f5a922" d="M304 368h-12a12 12 0 0 0-12 12v20.305A63.7 63.7 0 0 1 216.305 464H180a12 12 0 0 0-12 12v12h136z"/><path fill="#f9da62" d="M64 360h48v48H64z"/><path fill="#f5a922" d="M160 368h-12a12 12 0 0 0-12 12v20.305A63.7 63.7 0 0 1 72.305 464H36a12 12 0 0 0-12 12v12h136z"/><path fill="#f9da62" d="M64 232h48v48H64z"/><path fill="#f5a922" d="M160 240h-12a12 12 0 0 0-12 12v20.305A63.7 63.7 0 0 1 72.305 336H36a12 12 0 0 0-12 12v12h136z"/><path d="M120 448h16v16h-16zm184-96H168V232a8 8 0 0 0-8-8H16a8 8 0 0 0-8 8v256a8 8 0 0 0 8 8h288a8 8 0 0 0 8-8V360a8 8 0 0 0-8-8zm-88 16h32v32h-32zM72 240h32v32H72zm-48 0h32v40a8 8 0 0 0 8 8h48a8 8 0 0 0 8-8v-40h32v112H24zm48 128h32v32H72zm-48 0h32v40a8 8 0 0 0 8 8h48a8 8 0 0 0 8-8v-40h32v112H24zm272 112H168V368h32v40a8 8 0 0 0 8 8h48a8 8 0 0 0 8-8v-40h32zm-32-32h16v16h-16zM120 320h16v16h-16zm358.123-208.224A7.941 7.941 0 0 0 480 112a8.023 8.023 0 0 0 6.926-3.984 8.237 8.237 0 0 0 1.074-4.2V72a8 8 0 0 0-6.123-7.776l-232-56a7.967 7.967 0 0 0-3.754 0l-232 56A8 8 0 0 0 8 72v31.773a8.322 8.322 0 0 0 1.374 4.718 8.013 8.013 0 0 0 8.5 3.285L32 108.367V208h16V104.505l200-48.276 200 48.276V480h-48V168a8 8 0 0 0-8-8H104a8 8 0 0 0-8 8v32a8 8 0 0 0 8 8h280v16H184v16h200v16H184v16h200v16H184v16h200v176h-56v16h160v-16h-24V108.367zM112 192v-16h272v16zM248 40a7.943 7.943 0 0 0-1.877.224L24 93.839V78.3l224-54.07L472 78.3v15.54L249.877 40.224A7.943 7.943 0 0 0 248 40zm16 96a24 24 0 0 0 0-48h-32a24 24 0 0 0 0 48zm-40-24a8.009 8.009 0 0 1 8-8h32a8 8 0 0 1 0 16h-32a8.009 8.009 0 0 1-8-8z"/></svg>