<svg xmlns="http://www.w3.org/2000/svg" fill="currentColor" viewBox="0 0 512 512" xmlns:v="https://vecta.io/nano"><path d="M437.982 10H245.983c-35.346 0-64 28.654-64 64v79c0 35.346 28.654 64 64 64h90.557v38.095L374.635 217h63.347c35.346 0 64-28.654 64-64V74c0-35.346-28.654-64-64-64z" fill="#ff8e8e"/><path d="m48.782 133.884-11.879 15.132C-2.508 199.22 1.796 270.953 46.927 316.085l108.906 108.906c45.132 45.132 116.865 49.436 167.069 10.024l15.132-11.879c13.663-10.726 14.878-30.982 2.596-43.264l-55.361-55.361c-11.312-11.312-29.651-11.312-40.963 0l-18.011 18.011c-8.504 8.504-22.293 8.504-30.797 0l-66.149-66.149c-8.504-8.504-8.504-22.293 0-30.797l18.011-18.011c11.312-11.312 11.312-29.651 0-40.963l-55.315-55.315c-12.281-12.281-32.537-11.066-43.263 2.597z" fill="#98e3ff"/><g fill="#fff"><path d="M285.27 324.512c-11.312-11.312-29.651-11.312-40.962 0L226.59 342.23l94.315 94.316 1.997-1.53 15.132-11.879c13.663-10.726 14.878-30.982 2.596-43.264l-55.36-55.361zm-155.626-79.228l17.718-17.718c11.312-11.312 11.312-29.651 0-40.963l-55.315-55.314c-12.282-12.282-32.539-11.067-43.264 2.596l-11.879 15.132-1.531 1.997 94.271 94.27z"/><path d="m228.531 344.94 90.802 90.802 18.701-12.606c13.663-10.726 14.878-30.982 2.596-43.264l-55.361-55.361c-11.312-11.312-29.651-11.312-40.963 0l-15.775 20.429zm-99.226-99.226L38.66 155.069l10.124-21.183c10.726-13.663 30.982-14.878 43.264-2.596l55.315 55.315c11.312 11.312 11.312 29.651 0 40.963l-18.058 18.146z"/></g><path d="M292.341 317.44c-15.193-15.192-39.912-15.192-55.105 0l-18.011 18.011a11.7 11.7 0 0 1-8.327 3.449c-3.145 0-6.104-1.225-8.327-3.45l-66.148-66.148a11.7 11.7 0 0 1-3.45-8.328c0-2.909 1.06-5.65 2.978-7.806.143-.127.289-.248.426-.385.263-.263.504-.538.732-.821l17.326-17.326c15.192-15.193 15.192-39.913 0-55.105L99.12 124.217a38.997 38.997 0 0 0-29.887-11.342 38.988 38.988 0 0 0-28.314 14.834L29.04 142.841c-42.496 54.133-37.845 131.651 10.818 180.315l108.906 108.906c26.396 26.396 61.271 39.84 96.309 39.84 23.802 0 47.681-6.215 69.014-18.788 6.463 7.986 6.103 17.501 3.375 24.084-2.964 7.156-10.34 14.802-22.152 14.802h-66.776c-5.522 0-10 4.477-10 10s4.478 10 10 10h66.776c18.125 0 33.694-10.402 40.63-27.148 6.114-14.76 3.997-30.776-5.367-43.144l13.639-10.707a38.994 38.994 0 0 0 14.835-28.317 38.991 38.991 0 0 0-11.343-29.885l-55.363-55.359zM70.429 132.839a18.71 18.71 0 0 1 14.547 5.521l55.315 55.315a18.84 18.84 0 0 1 5.555 13.41c0 5.066-1.973 9.829-5.555 13.41l-11.031 11.031-80.904-80.904 8.292-10.563c3.396-4.326 8.291-6.89 13.781-7.22zm92.476 285.082L53.998 309.014c-38.06-38.059-44.554-96.805-17.438-141.903l79.725 79.725a31.635 31.635 0 0 0-3.312 14.14c0 8.488 3.306 16.468 9.308 22.47l66.148 66.148c6.002 6.002 13.981 9.308 22.47 9.308 4.99 0 9.8-1.151 14.141-3.312l79.77 79.77c-45.101 27.114-103.845 20.619-141.905-17.439zm176.175-16.432c-.329 5.491-2.894 10.386-7.221 13.783l-10.562 8.292-80.95-80.95 11.03-11.031c7.393-7.396 19.426-7.395 26.82 0l55.361 55.361a18.72 18.72 0 0 1 5.522 14.545zM86.519 293.131c-3.906-3.905-10.236-3.905-14.143 0s-3.905 10.237 0 14.143l60.345 60.345c1.953 1.953 4.512 2.929 7.071 2.929s5.118-.976 7.071-2.929c3.905-3.905 3.905-10.237 0-14.143l-60.344-60.345zm84.654 88.797c-2.63 0-5.21 1.07-7.069 2.93a10.077 10.077 0 0 0-2.931 7.07c0 2.63 1.07 5.21 2.931 7.07a10.056 10.056 0 0 0 7.069 2.93c2.63 0 5.21-1.07 7.07-2.93s2.93-4.44 2.93-7.07-1.069-5.21-2.93-7.07a10.077 10.077 0 0 0-7.07-2.93zM437.982 0H245.983c-40.804 0-74 33.196-74 74v79c0 40.804 33.196 74 74 74h80.558v28.095a10.002 10.002 0 0 0 17.071 7.072L378.778 227h59.204c40.804 0 74-33.196 74-74V74c0-40.804-33.197-74-74-74zm54 152.999c0 29.776-24.225 54-54 54h-63.347a10.003 10.003 0 0 0-7.071 2.929l-21.024 21.024v-13.953c0-5.523-4.478-10-10-10h-90.557c-29.775 0-54-24.224-54-54V74c0-29.776 24.225-54 54-54h191.999c29.775 0 54 24.224 54 54v78.999zm-212.462-13.5h-21.079c12.04-11.595 24.249-26.847 24.249-41.024 0-18.528-12.448-30.976-30.976-30.976-17.08 0-30.977 13.896-30.977 30.976 0 5.523 4.478 10 10 10s10-4.477 10-10c0-6.052 4.924-10.976 10.977-10.976 9.838 0 10.976 6.264 10.976 10.976 0 10.946-22.52 32.052-37.737 42.868a10 10 0 0 0 5.785 18.156h48.782c5.522 0 10-4.477 10-10s-4.478-10-10-10zm49.943-43.355c-5.522 0-10 4.477-10 10v6.983h-9.778l17.453-30.684c2.73-4.801 1.053-10.906-3.748-13.637a10 10 0 0 0-13.637 3.748L283.8 118.182a10 10 0 0 0 8.693 14.944h26.971v16.373c0 5.523 4.478 10 10 10s10-4.477 10-10v-43.355c-.001-5.523-4.479-10-10.001-10zm64.636-27.977a10 10 0 0 0-12.924 5.742l-27.7 72c-1.983 5.155.588 10.941 5.742 12.924a9.968 9.968 0 0 0 3.589.67c4.017 0 7.807-2.439 9.335-6.412l27.7-72c1.983-5.155-.588-10.941-5.742-12.924zm59.128-.667h-35.163c-5.522 0-10 4.477-10 10s4.478 10 10 10h20.772l-21.772 58.513a10 10 0 0 0 5.885 12.859 9.969 9.969 0 0 0 3.486.631c4.058 0 7.875-2.489 9.373-6.516l26.791-72a9.998 9.998 0 0 0-9.372-13.487zM174.589 470.127c-3.905-3.905-10.235-3.905-14.143 0a10 10 0 0 0 0 14.142l24.799 24.799c1.953 1.953 4.512 2.929 7.071 2.929a9.97 9.97 0 0 0 7.071-2.929c3.905-3.905 3.905-10.237 0-14.142l-24.798-24.799zm-50.612 0c-3.905-3.905-10.235-3.905-14.143 0a10 10 0 0 0 0 14.142l24.799 24.799c1.953 1.953 4.512 2.929 7.071 2.929a9.97 9.97 0 0 0 7.071-2.929c3.905-3.905 3.905-10.237 0-14.142l-24.798-24.799zm-50.613 0c-3.905-3.905-10.235-3.905-14.143 0a10 10 0 0 0 0 14.142l24.799 24.799c1.953 1.953 4.512 2.929 7.071 2.929a9.97 9.97 0 0 0 7.071-2.929c3.905-3.905 3.905-10.237 0-14.142l-24.798-24.799z"/></svg>