<svg xmlns="http://www.w3.org/2000/svg" fill="currentColor" viewBox="0 0 512 512" xmlns:v="https://vecta.io/nano"><path fill="#fff" d="M490.586 374.278H86.632c-9.604 0-17.39-7.786-17.39-17.39s7.786-17.39 17.39-17.39h403.955c9.604 0 17.39 7.786 17.39 17.39s-7.786 17.39-17.391 17.39z"/><circle cx="196.083" cy="403.752" fill="#f9fbfc" transform="rotate(274.76 196.144 403.63)" r="19.306"/><circle cx="418.522" cy="403.752" fill="#fff" transform="rotate(277 418.22 403.559)" r="19.306"/><path fill="#eaa895" d="M427.776 189.982H322.315v149.516h174.579V259.1a33.33 33.33 0 0 0-9.763-23.569l-35.787-35.787a33.327 33.327 0 0 0-23.568-9.762z"/><path fill="#e9c278" d="M93.738 126.022h236.769c7.409 0 13.414 6.006 13.414 13.414v186.647c0 7.409-6.006 13.414-13.414 13.414H93.738c-7.409 0-13.414-6.006-13.414-13.414V139.436c0-7.408 6.005-13.414 13.414-13.414z"/><g fill="#f9fbfc"><path d="M468.471 273.471v-10.878a22.762 22.762 0 0 0-6.668-16.097l-24.441-24.441a22.763 22.763 0 0 0-16.096-6.667h-52.693v58.083z"/><circle cx="90.862" cy="150.524" transform="rotate(279.2 90.835 150.532)" r="72.02"/><path d="M337.885 128.239c-.101-.009-.199-.031-.302-.031a3.288 3.288 0 1 0 3.222 2.636 13.526 13.526 0 0 0-2.92-2.605zm-11.299 10.966a3.288 3.288 0 1 0 0 6.575 3.288 3.288 0 0 0 0-6.575zm10.997 10.198a3.287 3.287 0 1 0 0 6.575 3.288 3.288 0 1 0 0-6.575zm-10.997 17.572a3.288 3.288 0 1 0 0-6.576 3.288 3.288 0 0 0 0 6.576zm10.997 3.622a3.288 3.288 0 1 0 0 6.576 3.288 3.288 0 0 0 0-6.576zm-10.997 17.572a3.288 3.288 0 1 0 0-6.576 3.288 3.288 0 0 0 0 6.576zm10.997 3.623a3.288 3.288 0 1 0 0 6.575 3.288 3.288 0 0 0 0-6.575zm-10.997 17.572a3.288 3.288 0 1 0 0-6.576 3.288 3.288 0 0 0 0 6.576zm10.997 3.623a3.288 3.288 0 1 0 0 6.575 3.288 3.288 0 0 0 0-6.575zm-10.997 17.571a3.288 3.288 0 1 0 0-6.575 3.288 3.288 0 0 0 0 6.575zm10.997 3.623a3.288 3.288 0 1 0 0 6.576 3.288 3.288 0 0 0 0-6.576zm-10.997 17.571a3.288 3.288 0 1 0 0-6.576 3.288 3.288 0 0 0 0 6.576zm10.997 3.624a3.288 3.288 0 1 0 0 6.576 3.288 3.288 0 0 0 0-6.576zm-10.997 17.571a3.288 3.288 0 1 0 0-6.576 3.288 3.288 0 0 0 0 6.576zm10.997 3.623a3.288 3.288 0 1 0 0 6.576 3.288 3.288 0 0 0 0-6.576zm-10.997 17.572a3.288 3.288 0 1 0 0-6.576 3.288 3.288 0 0 0 0 6.576zm10.997 3.623a3.288 3.288 0 1 0 0 6.575 3.288 3.288 0 0 0 0-6.575zm-10.997 17.571a3.288 3.288 0 1 0 0-6.575 3.288 3.288 0 0 0 0 6.575zm10.997 10.198a3.287 3.287 0 1 0 0-6.575 3.288 3.288 0 1 0 0 6.575zm-10.997 10.997a3.288 3.288 0 1 0 0-6.576 3.288 3.288 0 0 0 0 6.576zm-10.198-201.747a3.288 3.288 0 1 0 0-6.575 3.288 3.288 0 0 0 0 6.575zm0 21.194a3.288 3.288 0 1 0 0-6.576 3.288 3.288 0 0 0 0 6.576zm0 21.195a3.288 3.288 0 1 0 0-6.576 3.288 3.288 0 0 0 0 6.576zm0 21.194a3.288 3.288 0 1 0 0-6.576 3.288 3.288 0 0 0 0 6.576zm0 21.195a3.288 3.288 0 1 0 0-6.576 3.288 3.288 0 0 0 0 6.576zm0 21.194a3.288 3.288 0 1 0 0-6.576 3.288 3.288 0 0 0 0 6.576zm0 21.195a3.288 3.288 0 1 0 0-6.576 3.288 3.288 0 0 0 0 6.576z"/><circle cx="316.388" cy="279.858" r="3.287"/><path d="M316.388 304.34a3.288 3.288 0 1 0 0-6.576 3.288 3.288 0 0 0 0 6.576zm-10.996 4.421a3.288 3.288 0 1 0 0 6.576 3.288 3.288 0 0 0 0-6.576z"/><circle cx="316.388" cy="322.247" r="3.287"/><path d="M305.392 329.956a3.288 3.288 0 1 0 0 6.576 3.288 3.288 0 0 0 0-6.576zm-21.195-21.195a3.288 3.288 0 1 0 0 6.576 3.288 3.288 0 0 0 0-6.576z"/><circle cx="295.194" cy="322.247" r="3.287"/><path d="M284.197 329.956a3.288 3.288 0 1 0 0 6.576 3.288 3.288 0 0 0 0-6.576z"/><circle cx="263.003" cy="312.049" r="3.287"/><circle cx="273.999" cy="322.247" r="3.287"/><circle cx="263.003" cy="333.243" r="3.287"/><path d="M241.808 308.761a3.287 3.287 0 1 0 0 6.574 3.287 3.287 0 0 0 0-6.574zm7.709 13.486a3.287 3.287 0 1 0 3.288-3.288 3.288 3.288 0 0 0-3.288 3.288zm-7.709 7.709a3.288 3.288 0 1 0 .001 6.577 3.288 3.288 0 0 0-.001-6.577zm-21.194-21.195a3.288 3.288 0 1 0 0 6.576 3.288 3.288 0 0 0 0-6.576zm7.708 13.486a3.287 3.287 0 1 0 3.288-3.288 3.288 3.288 0 0 0-3.288 3.288zm-7.708 7.709a3.288 3.288 0 1 0 0 6.576 3.288 3.288 0 0 0 0-6.576zm-21.195-21.195a3.288 3.288 0 1 0 0 6.576 3.288 3.288 0 0 0 0-6.576zm7.709 13.486a3.287 3.287 0 1 0 6.574 0 3.287 3.287 0 0 0-6.574 0zm-7.709 7.709a3.288 3.288 0 1 0 0 6.576 3.288 3.288 0 0 0 0-6.576zm-21.194-21.195a3.288 3.288 0 1 0 0 6.576 3.288 3.288 0 0 0 0-6.576zm7.708 13.486a3.287 3.287 0 1 0 3.288-3.288 3.288 3.288 0 0 0-3.288 3.288zm-7.708 7.709a3.288 3.288 0 1 0 0 6.576 3.288 3.288 0 0 0 0-6.576z"/><circle cx="157.03" cy="312.049" r="3.287"/><path d="M164.739 322.247a3.287 3.287 0 1 0 6.574 0 3.287 3.287 0 0 0-6.574 0z"/><circle cx="157.03" cy="333.243" r="3.287"/><circle cx="135.835" cy="312.049" r="3.287"/><path d="M143.544 322.247a3.287 3.287 0 1 0 3.288-3.288 3.288 3.288 0 0 0-3.288 3.288z"/><circle cx="135.835" cy="333.243" r="3.287"/><path d="M114.641 308.761a3.288 3.288 0 1 0 0 6.576 3.288 3.288 0 0 0 0-6.576zm7.709 13.486a3.287 3.287 0 1 0 6.574 0 3.287 3.287 0 0 0-6.574 0zm-7.709 7.709a3.288 3.288 0 1 0 0 6.576 3.288 3.288 0 0 0 0-6.576zm-21.194-21.195a3.288 3.288 0 1 0 0 6.576 3.288 3.288 0 0 0 0-6.576zm7.708 13.486a3.287 3.287 0 1 0 6.574 0 3.287 3.287 0 0 0-6.574 0zm-7.708 7.709a3.288 3.288 0 1 0 0 6.576 3.288 3.288 0 0 0 0-6.576zm-10.199-4.422a3.287 3.287 0 1 0 0-6.575 3.277 3.277 0 0 0-2.925 1.815v2.945a3.276 3.276 0 0 0 2.925 1.815z"/></g><path d="M500.918 338.143v-79.042a37.11 37.11 0 0 0-10.941-26.414L454.19 196.9a37.11 37.11 0 0 0-26.414-10.941h-79.831v-46.522c0-9.615-7.823-17.438-17.438-17.438H177.131c-11.99-36.17-46.13-62.336-86.27-62.336-50.1 0-90.861 40.76-90.861 90.861 0 45.145 33.098 82.7 76.301 89.689v85.87c0 3.948 1.334 7.582 3.555 10.508-8.493 2.844-14.637 10.86-14.637 20.297 0 11.807 9.606 21.414 21.414 21.414h68.086a48.28 48.28 0 0 0-7.221 25.45c0 26.79 21.796 48.586 48.586 48.586s48.586-21.796 48.586-48.586a48.286 48.286 0 0 0-7.221-25.45h139.708a48.28 48.28 0 0 0-7.221 25.45c0 26.79 21.796 48.586 48.586 48.586s48.586-21.796 48.586-48.586a48.286 48.286 0 0 0-7.221-25.45h30.699c11.807 0 21.414-9.606 21.414-21.414 0-8.062-4.482-15.092-11.082-18.745zm-152.973-12.06V194.005h79.831a29.12 29.12 0 0 1 20.725 8.584l35.787 35.787a29.12 29.12 0 0 1 8.584 20.725v76.373H345.177a17.32 17.32 0 0 0 2.768-9.391zm-17.438-196.037c5.178 0 9.391 4.213 9.391 9.391v186.647c0 5.178-4.213 9.391-9.391 9.391H93.738c-5.178 0-9.391-4.213-9.391-9.391V241.15a91.83 91.83 0 0 0 6.514.236c50.101 0 90.861-40.761 90.861-90.861 0-7.04-.805-13.895-2.327-20.479zM22.865 150.524c0-37.494 30.503-67.997 67.996-67.997s67.997 30.503 67.997 67.997-30.503 67.996-67.997 67.996-67.996-30.503-67.996-67.996zm173.218 268.511c-8.427 0-15.283-6.856-15.283-15.284s6.856-15.283 15.283-15.283 15.283 6.856 15.283 15.283-6.856 15.284-15.283 15.284zm237.722-15.284c0 8.428-6.856 15.284-15.283 15.284s-15.283-6.856-15.283-15.284 6.856-15.283 15.283-15.283 15.283 6.857 15.283 15.283zm56.781-33.496h-36.921c-8.855-9.285-21.33-15.089-35.143-15.089s-26.288 5.803-35.143 15.089H231.226c-8.855-9.285-21.33-15.089-35.143-15.089s-26.288 5.803-35.143 15.089H86.632c-7.371 0-13.367-5.996-13.367-13.367s5.996-13.367 13.367-13.367h403.954c7.371 0 13.367 5.996 13.367 13.367s-5.996 13.367-13.367 13.367zM128.269 172.213l-34.202-24.18v-36.208a4.023 4.023 0 1 0-8.046 0v38.291a4.03 4.03 0 0 0 1.701 3.286l35.904 25.382a4.017 4.017 0 0 0 5.607-.963 4.025 4.025 0 0 0-.964-5.608z" fill="#31373d"/></svg>