<svg xmlns="http://www.w3.org/2000/svg" fill="currentColor" viewBox="0 0 511.998 511.998" xmlns:v="https://vecta.io/nano"><g fill-rule="evenodd"><path fill="#9ea6bf" d="M255.999 51.072c-50.313 0-91.47 41.158-91.47 91.472v17.518c44.389 3.118 63.38-7.143 109.271-24.378 29.025-8.305 43.765 7.455 73.669 24.973v-18.113c0-50.314-41.158-91.472-91.47-91.472z"/><path fill="#f5c6af" d="M164.529 160.062v38.692c0 3.628.227 7.228.652 10.743 3.543 29.933 21.684 55.586 47.081 69.504 13.01 7.143 27.92 11.225 43.736 11.225s30.726-4.082 43.736-11.225c12.954-7.086 24.008-17.234 32.2-29.423 7.908-11.735 13.18-25.398 14.909-40.081.425-3.515.624-7.115.624-10.743v-38.097c-29.904-17.518-44.643-33.278-73.669-24.973-45.889 17.235-64.88 27.497-109.269 24.378z"/><path fill="#cfd3df" d="M122.181 172.676v10.573c0 14.428 11.792 26.248 26.219 26.248h16.78a89.652 89.652 0 0 1-.652-10.743v-52.298H148.4c-14.427 0-26.219 11.792-26.219 26.22zm225.288-12.019v38.097c0 3.628-.198 7.228-.624 10.743h16.752c10.091 0 18.906-5.783 23.3-14.23a25.965 25.965 0 0 0 2.92-12.019v-10.573c0-14.428-11.792-26.22-26.219-26.22H347.47v14.202z"/><path fill="#f2b394" d="M212.262 279.001v41.81l43.736 29.508 43.736-29.508v-41.81c-13.01 7.143-27.92 11.225-43.736 11.225s-30.725-4.081-43.736-11.225z"/><g fill="#ff6c8a"><path d="m237.943 422.318-18.169 79.68h72.478l-18.197-79.68z"/><path d="m224.451 371.607 13.492 50.711h36.112l13.492-50.711-31.548-21.288z"/></g><path fill="#cbf4fb" d="M174.053 332.206l27.977 54.509 22.421-15.108 31.548-21.288-43.736-29.508c-11.367 3.742-24.547 7.314-38.21 11.395zm125.682-11.395l-43.736 29.508 31.548 21.288 22.449 15.108 27.948-54.509-38.209-11.395z"/><path fill="#98eaf9" d="m337.944 332.206-27.948 54.509-22.449-15.108-13.492 50.711 18.198 79.68h149.066v-78.064c-.936-56.777-55.16-77.385-103.375-91.728zm-163.891 0c-48.215 14.343-102.439 34.95-103.374 91.727v78.064h149.095l18.169-79.68-13.492-50.711-22.421 15.108z"/></g><path d="M451.317 423.77c-1.138-69.583-72.282-90.141-124.23-105.152l-17.352-5.118v-28.705a102.29 102.29 0 0 0 27.433-25.217h31.644c15.485 0 28.084-12.599 28.084-28.084v-33.996a36.06 36.06 0 0 0 2.92-14.249v-10.573c0-5.052-1.043-9.865-2.92-14.238V140.9C396.896 63.208 333.69 0 255.999 0 178.323 0 115.13 63.208 115.13 140.901v17.036c0 .134.015.263.02.396a36.01 36.01 0 0 0-2.968 14.344v10.573c0 19.987 16.248 36.248 36.219 36.248h8.264c5.724 27.448 22.575 50.858 45.598 65.292v28.71l-17.352 5.118c-51.948 15.011-123.092 35.57-124.23 105.152l-.001.164v78.064c0 5.523 4.478 10 10 10h29.648c5.522 0 10-4.477 10-10s-4.478-10-10-10H80.679v-67.981c.421-24.277 11.573-42.476 35.094-57.271 15.521-9.763 34.496-16.719 53.2-22.538l24.161 47.074c2.693 5.247 9.588 7.03 14.488 3.724l10.773-7.267 9.249 34.763-15.847 69.495h-21.672c-5.522 0-10 4.477-10 10s4.478 10 10 10h251.193c5.522 0 10-4.477 10-10v-78.064l-.001-.163zm-129.782-85.939l1.993.577-17.287 33.714-32.351-21.815 27.411-18.489c6.368 2.004 13.14 3.963 20.234 6.013zm-65.529 24.539l20.052 13.522-9.691 36.426h-20.736l-9.688-36.415zm-.002-24.123l-33.742-22.753v-21.052a100.983 100.983 0 0 0 33.736 5.784c11.823 0 23.176-2.042 33.736-5.777v21.045zm81.464-195.517l-.41-.261c-20.519-13.062-38.241-24.343-66.009-16.398a10.21 10.21 0 0 0-.765.252l-16.418 6.265c-31.623 12.173-48.889 18.821-79.337 17.965v-8.008c0-44.924 36.547-81.472 81.469-81.472s81.469 36.548 81.469 81.472v.185zm39.428 88.764c0 4.458-3.626 8.084-8.084 8.084h-19.928a100.624 100.624 0 0 0 6.45-20.081h8.264c4.695 0 9.178-.908 13.299-2.543v14.54zm2.92-48.245c0 8.959-7.275 16.248-16.219 16.248h-6.138l.01-43.041h6.129c8.943 0 16.219 7.276 16.219 16.22v10.573zm-231.415 16.249c-8.943 0-16.219-7.289-16.219-16.248v-10.573c0-8.944 7.275-16.22 16.219-16.22h6.129l.01 43.041zm6.316-63.042H148.4c-4.675 0-9.14.9-13.246 2.52C136.187 73.196 189.995 20 255.999 20c66.023 0 119.846 53.202 120.872 118.987a36.005 36.005 0 0 0-13.274-2.531h-6.317c-3.16-53.128-47.376-95.383-101.281-95.383s-98.122 42.256-101.282 95.383zm20.414 72.027l-.004-.03a81.929 81.929 0 0 1-.597-9.698v-28.203c34.213.834 54.622-7.018 86.521-19.298a2115.503 2115.503 0 0 1 15.874-6.06c18.89-5.273 29.759 1.648 49.393 14.147l11.15 6.987v32.427c0 14.871-4.024 28.811-11.011 40.824h-70.458c-5.522 0-10 4.477-10 10s4.478 10 10 10h54.124c-14.402 12.831-33.364 20.648-54.124 20.648-41.629-.001-76.043-31.393-80.868-71.744zm30.65 163.64l-17.306-33.717 1.988-.575 20.236-6.014 27.422 18.492zm26.53 119.875l13.609-59.68h20.161l13.63 59.68zm199.007 0H300.226l-15.872-69.497 9.253-34.776 10.799 7.282c4.902 3.305 11.797 1.522 14.489-3.728l24.134-47.069c18.703 5.819 37.677 12.774 53.197 22.536 23.52 14.794 34.673 32.994 35.094 57.271v67.981zm-39.49-50.003h-50.397c-5.522 0-10 4.477-10 10s4.478 10 10 10h50.397c5.522 0 10-4.477 10-10a10 10 0 0 0-10-10zm-246.601 50.003c-5.522 0-10 4.477-10 10s4.478 10 10 10h.028a9.99 9.99 0 0 0 9.985-10c0-5.523-4.491-10-10.013-10z"/></svg>