<svg xmlns="http://www.w3.org/2000/svg" fill="currentColor" viewBox="0 0 496.485 496.485" xmlns:v="https://vecta.io/nano"><style><![CDATA[.B{fill:#193651}.C{fill:#fdbf5e}]]></style><circle cx="183.079" cy="335.127" r="161.358" fill="#4fbf9f"/><path d="M180.752 33.358h287.03V367.71h-287.03z" fill="#e1e6e9"/><path d="M467.782 374.691h-287.03a6.953 6.953 0 0 1-6.982-6.982V33.358a6.953 6.953 0 0 1 6.982-6.982h287.03a6.953 6.953 0 0 1 6.982 6.982V367.71a6.953 6.953 0 0 1-6.982 6.981zm-280.049-13.964h273.842V40.339H187.733v320.388z" class="B"/><path d="M207.585 59.733h233.503v280.824H207.585z" fill="#fff"/><path d="M169.891 414.255c10.861 5.43 42.667 18.618 41.891-4.655 10.861 3.879 20.945-.776 20.17-13.188 10.861 3.879 20.17-3.103 20.17-14.739 20.17 3.879 21.721-17.067 12.412-29.479-6.982-8.533-15.515-15.515-24.048-22.497-13.188-11.636-25.6-24.048-38.788-34.133-9.309-6.982-18.618-6.982-30.255-9.309-20.17-3.879-35.685-4.655-52.752-17.067l-41.115 61.285c5.43 5.43 12.412 11.636 18.618 17.842" class="C"/><path d="M198.594 429.77c-13.188 0-28.703-7.758-31.806-9.309s-4.655-5.43-3.103-9.309c1.552-3.103 5.43-4.655 9.309-3.103 10.861 5.43 25.6 10.085 30.255 6.982 1.552-.776 1.552-2.327 1.552-5.43 0-2.327.776-4.655 2.327-5.43 1.552-1.552 3.879-1.552 6.206-.776 6.206 2.327 11.636.776 11.636-6.206 0-2.327.776-4.655 2.327-5.43 1.552-1.552 3.879-1.552 6.206-.776 6.982 2.327 10.861-1.552 11.636-8.533 0-2.327.776-3.879 2.327-4.655 1.552-1.552 3.103-1.552 5.43-1.552 4.655.776 7.758 0 9.309-2.327 2.327-3.103 1.552-10.861-3.103-16.291-5.43-6.206-11.636-11.636-18.618-17.842l-4.655-3.879c-4.655-3.879-8.533-7.758-13.188-11.636-8.533-7.758-17.067-15.515-25.6-22.497-6.206-4.655-12.412-5.43-20.945-6.982-2.327 0-4.655-.776-6.206-.776-3.103-.776-6.206-.776-9.309-1.552-13.964-2.327-27.152-4.655-40.339-12.412l-34.133 50.424c1.552 1.552 3.103 3.103 5.43 4.655 3.103 3.103 6.206 6.206 9.309 8.533 2.327 2.327 3.103 6.982 0 9.309-2.327 2.327-6.982 3.103-9.309 0-3.103-3.103-6.206-5.43-9.309-8.533s-6.206-6.206-9.309-8.533c-2.327-2.327-3.103-6.206-.776-8.533l41.115-61.285c.776-1.552 2.327-2.327 4.655-3.103 1.552 0 3.879 0 5.43.776 13.188 9.309 25.6 11.636 41.115 13.964 3.103.776 6.206.776 9.309 1.552 2.327.776 3.879.776 6.206.776 9.309 1.552 17.842 3.103 26.376 9.309 9.309 6.982 18.618 15.515 27.152 23.273 3.879 3.879 8.533 7.758 12.412 11.636l4.655 3.879c6.982 6.206 13.964 11.636 20.17 19.394 7.758 9.309 9.309 23.273 4.655 31.806-3.103 5.43-9.309 8.533-16.291 9.309-2.327 8.533-9.309 15.515-20.17 15.515-2.327 8.533-10.085 13.964-20.17 13.188-3.879 8.531-10.861 12.41-20.17 12.41z" class="B"/><path d="m196.267 290.909 64.388 55.855 27.152-12.412v-70.594l-96.97-16.291-41.115 36.461c-6.982 6.206-6.982 17.067-.776 23.273 5.43 5.43 13.188 6.206 19.394 2.327l27.927-18.619z" class="C"/><path d="M260.655 353.745c-1.552 0-3.103-.776-4.655-1.552l-60.509-52.752-24.824 15.515c-3.879 2.327-7.758 3.103-11.636 3.103-6.206 0-11.636-2.327-15.515-6.206-9.309-9.309-8.533-24.048.776-33.358l41.115-36.461c1.552-1.552 3.879-1.552 5.43-1.552l96.97 16.291c3.103.776 5.43 3.103 5.43 6.982v70.594c0 2.327-1.552 4.655-3.879 6.206l-27.152 12.412c0 .003-.776.778-1.551.778zm-64.388-69.818c1.552 0 3.103.776 4.655 1.552l60.509 52.752 19.394-8.533v-60.509l-88.436-14.739-38.789 34.132c-3.879 3.103-3.879 9.309-.776 13.188 3.103 3.103 7.758 3.103 10.861 1.552l28.703-17.842c1.551-.777 3.103-1.553 3.879-1.553z" class="B"/><path d="m96.97 252.121-43.442 64.388c-3.879 6.206-2.327 14.739 3.879 18.618s14.739 2.327 18.618-3.879l43.442-64.388c3.879-6.206 2.327-14.739-3.879-18.618s-13.964-2.327-18.618 3.879z" fill="#fff"/><path d="M65.164 344.436c-3.879 0-7.758-1.552-11.636-3.103-9.309-6.206-11.636-18.618-5.43-27.927l43.442-64.388c6.206-9.309 18.618-11.636 27.927-5.43s11.636 18.618 5.43 27.927l-43.442 64.388c-3.103 5.43-9.31 8.533-16.291 8.533zM102.4 256l-43.442 64.388c-2.327 3.103-1.552 7.758 1.552 9.309 3.103 2.327 7.758 1.552 9.309-1.552l43.442-64.388c2.327-3.103 1.552-7.758-1.552-9.309-2.327-2.327-6.982-1.551-9.309 1.552z" class="B"/><path d="M314.958 338.23v-77.576a13.906 13.906 0 1 0-27.928 0v77.576a13.906 13.906 0 0 0 13.964 13.964c7.758-.776 13.964-6.982 13.964-13.964z" fill="#fff"/><path d="M300.994 358.4c-10.861 0-20.17-9.309-20.17-20.17v-77.576c0-10.861 9.309-20.17 20.17-20.17s20.17 9.309 20.17 20.17v77.576c.775 10.861-8.534 20.17-20.17 20.17zm0-104.727a6.953 6.953 0 0 0-6.982 6.982v77.576a6.95 6.95 0 1 0 13.964 0v-77.576a6.953 6.953 0 0 0-6.982-6.982zm-48.097 134.982c-1.552 0-3.103-.776-4.655-1.552l-33.358-30.255c-3.103-2.327-3.103-6.982-.776-9.309 2.327-3.103 6.982-3.103 9.309-.776l33.358 30.255c3.103 2.327 3.103 6.982.776 9.309-1.551 1.552-3.103 2.328-4.654 2.328zm-20.945 14.739c-1.552 0-3.103-.776-4.655-1.552l-29.479-26.376c-3.103-2.327-3.103-6.982-.776-9.309 2.327-3.103 6.982-3.103 9.309-.776l29.479 26.376c3.103 2.327 3.103 6.982.776 9.309-.776 1.552-2.327 2.328-4.654 2.328zm-20.17 13.188c-1.552 0-3.103-.776-4.655-2.327l-17.842-17.842c-2.327-2.327-2.327-6.982 0-9.309s6.982-2.327 9.309 0l17.842 17.842c2.327 2.327 2.327 6.982 0 9.309-.775 1.551-3.103 2.327-4.654 2.327z" class="B"/><path d="M173.77 393.309c-4.655-5.43-12.412-5.43-18.618-.776l-9.309 7.758c-5.43 4.655-6.206 13.188-1.552 18.618s13.188 6.206 18.618 1.552l9.309-7.758c6.206-5.43 6.206-13.964 1.552-19.394z" class="C"/><path d="M155.152 429.77c-5.43 0-10.861-2.327-14.739-6.982-6.982-8.533-6.206-20.945 2.327-27.927l9.309-7.758c7.758-6.982 20.945-6.206 27.927 2.327s6.206 20.945-2.327 27.927l-9.309 7.758c-3.879 3.103-8.534 4.655-13.188 4.655zm9.309-34.134c-.776 0-2.327 0-3.879 1.552l-9.309 7.758c-2.327 2.327-3.103 6.206-.776 9.309 2.327 2.327 6.206 3.103 9.309.776l9.309-7.758c2.327-2.327 3.103-6.206.776-9.309-2.327-1.552-3.879-2.328-5.43-2.328z" class="B"/><path d="M116.364 345.212c-3.879-4.655-11.636-5.43-16.291-.776l-7.758 6.206c-4.655 3.879-5.43 11.636-.776 16.291 3.879 4.655 11.636 5.43 16.291.776l7.758-6.206c4.654-4.654 5.43-11.636.776-16.291z" class="C"/><path d="M100.848 377.018c-5.43 0-10.085-2.327-13.964-6.206-6.206-7.758-5.43-18.618 1.552-25.6l7.758-6.206c6.982-6.206 19.394-5.43 25.6 1.552 6.206 7.758 5.43 18.618-1.552 25.6l-7.758 6.206c-3.102 3.103-7.757 4.654-11.636 4.654zm6.982-29.479c-.776 0-1.552 0-3.103.776l-7.758 6.206c-1.552 1.552-2.327 4.655-.776 6.206.776.776 2.327 1.552 3.103 1.552s1.552 0 3.103-.776l7.758-6.206c1.552-1.552 2.327-4.655.776-6.206 0-.776-1.551-1.552-3.103-1.552z" class="B"/><path d="M160.582 370.812c-4.655-5.43-12.412-6.206-17.842-1.552l-17.067 15.515c-5.43 4.655-6.206 13.188-1.552 17.842 4.655 5.43 12.412 5.43 17.842 1.552l17.067-15.515c6.206-4.654 6.206-12.412 1.552-17.842z" class="C"/><path d="M133.43 413.479c-5.43 0-10.861-2.327-14.739-6.982-3.103-3.879-5.43-9.309-4.655-13.964 0-5.43 3.103-10.085 6.982-13.188l17.067-15.515c7.758-6.982 20.945-6.206 27.927 1.552s6.206 20.17-2.327 27.927l-17.067 15.515c-3.879 3.103-8.533 4.655-13.188 4.655zm17.843-40.34c-.776 0-2.327 0-3.879 1.552l-17.067 15.515c-1.552.776-2.327 2.327-2.327 3.879s.776 3.103 1.552 4.655c2.327 2.327 6.206 3.103 8.533.776L155.152 384c2.327-2.327 3.103-6.206.776-8.533-1.552-1.552-3.104-2.328-4.655-2.328z" class="B"/><path d="M148.17 348.315c-4.655-5.43-12.412-5.43-17.067-1.552l-26.376 23.273c-5.43 4.655-5.43 12.412-1.552 17.067 4.655 5.43 12.412 5.43 17.067 1.552l26.376-23.273c5.43-3.879 6.206-11.637 1.552-17.067z" class="C"/><path d="M112.485 398.739c-5.43 0-10.861-2.327-13.964-6.206s-4.655-8.533-4.655-13.964c0-4.655 2.327-9.309 6.206-13.188l26.376-23.273c7.758-6.206 20.17-5.43 26.376 1.552 3.103 3.879 4.655 8.533 4.655 13.964 0 4.655-2.327 9.309-6.206 13.188l-26.376 23.273c-3.103 2.327-7.758 4.654-12.412 4.654zm26.376-47.321c-.776 0-2.327 0-3.879 1.552l-26.376 23.273c-2.327 2.327-2.327 5.43-.776 7.758.776 1.552 2.327 1.552 3.879 1.552.776 0 2.327 0 3.879-1.552l26.376-23.273c.776-.776 1.552-2.327 1.552-3.879s0-3.103-1.552-3.879c0-1.552-1.552-1.552-3.103-1.552z" class="B"/><path d="M404.945 60.509H252.121l25.6-53.527h101.624z" fill="#f16051"/><path d="M404.945 67.491H252.121c-2.327 0-4.655-1.552-5.43-3.103-1.552-2.327-1.552-4.655-.776-6.206l25.6-54.303C272.291 1.552 274.618 0 277.721 0h102.4c2.327 0 4.655 1.552 6.206 3.879l24.824 52.752c.776.776 1.552 2.327 1.552 3.879-.776 3.878-3.879 6.981-7.758 6.981zM262.206 53.527h131.879l-19.394-40.339H281.6l-19.394 40.339z" class="B"/><path d="M234.279 100.073h27.927V128h-27.927z" fill="#fff"/><path d="M262.206 134.206h-27.927a6.953 6.953 0 0 1-6.982-6.982V99.297a6.953 6.953 0 0 1 6.982-6.982h27.927a6.953 6.953 0 0 1 6.982 6.982v27.927a6.953 6.953 0 0 1-6.982 6.982zm-20.945-13.188H256v-14.739h-14.739v14.739z" class="B"/><path d="M234.279 169.891h27.927v27.927h-27.927z" fill="#fff"/><path d="M262.206 204.8h-27.927a6.953 6.953 0 0 1-6.982-6.982v-27.927a6.953 6.953 0 0 1 6.982-6.982h27.927a6.953 6.953 0 0 1 6.982 6.982v27.927a6.953 6.953 0 0 1-6.982 6.982zm-20.945-13.964H256v-14.739h-14.739v14.739zm171.442-70.594h-97.745a6.953 6.953 0 1 1 0-13.964h97.745a6.953 6.953 0 0 1 6.982 6.982c-.776 3.879-3.879 6.982-6.982 6.982zm0 70.594h-97.745a6.95 6.95 0 1 1 0-13.964h97.745a6.953 6.953 0 0 1 6.982 6.982c-.776 3.879-3.879 6.982-6.982 6.982zm0 69.819h-63.612a6.953 6.953 0 1 1 0-13.964h63.612a6.953 6.953 0 0 1 6.982 6.982c-.776 3.879-3.879 6.982-6.982 6.982zm-70.594 42.666h13.188v13.188h-13.188zm31.806 0h13.188v13.188h-13.188zm31.806 0h13.188v13.188h-13.188z" class="B"/></svg>